# xmcd
#
# Track frame offsets:
#	150
#	14711
#	28102
#	41697
#	55109
#	67005
#	79752
#	91931
#	104618
#	118854
#	133723
#	147443
#	160681
#	175259
#	189355
#	203772
#	217101
#	229282
#	242090
#	254984
#	269104
#	281304
#	296222
#	308189
#	321193
#
# Disc length: 4434 seconds
#
# Revision: 1
# Processed by: cddbd v1.5.2PL0 Copyright (c) Steve Scherf et al.
# Submitted via: audiograbber 1.83.01
#
DISCID=8e115019
DTITLE=Various Artist - Easin' Back To Tennessee - Essential Tennessee Blues
DYEAR=2001
DGENRE=Blues
TTITLE0='Sleepy' John Estes - Street Car Blues
TTITLE1=Noah Lewis' Jug Band - Bad Luck's My Buddy Now
TTITLE2=Tom Dickson - Labor Blues
TTITLE3=Yank Rachel - Sweet Mama
TTITLE4=Robert Wilkins - Falling Down Blues
TTITLE5=Jed Davenport and His Beale Street Jug Band - Save Me Some
TTITLE6=Noah Lewis' Jug Band - New Minglewood Blues
TTITLE7=Beale Street Rounders - I'm Sittin' On The Tp Of The World 
TTITLE8=Delta Boys - Don't You Want To Know
TTITLE9=Jed Davenport - You Ought To Move Out Of Town
TTITLE10=Hammie and Son - Trouble Trouble Blues
TTITLE11=Delta Boys - Black Gal Swing
TTITLE12=Tim Wilkins - Dirty Deal Blues
TTITLE13='Sleepy' John Estes - Poor Mans Friends
TTITLE14=Charlie Pickett - Crazy 'Bout My Black Girl
TTITLE15=Tim Wilkins - New Stock Yard Blues
TTITLE16='Sleepy' John Estes - Easin' Back To Tennessee
TTITLE17=Charlie Pickett - Let Me Squeeze Your Lemon
TTITLE18=Little Buddy Doyle - Three-Sixty-Nine Blues
TTITLE19=Yank Rachel - I'm Wild And Crazy As Can Be
TTITLE20=John Henry Barbee - Six Weeks Old Blues
TTITLE21=Joe 'Jackson' Williams - Peach Orchand Mama
TTITLE22=Little Buddy Doyle - Sweet Man Blues
TTITLE23=Son Bonds - 80 Highway Blues
TTITLE24='Sleepy' John Estes - Little Laura Blues
EXTD=
EXTT0=
EXTT1=
EXTT2=
EXTT3=
EXTT4=
EXTT5=
EXTT6=
EXTT7=
EXTT8=
EXTT9=
EXTT10=
EXTT11=
EXTT12=
EXTT13=
EXTT14=
EXTT15=
EXTT16=
EXTT17=
EXTT18=
EXTT19=
EXTT20=
EXTT21=
EXTT22=
EXTT23=
EXTT24=
PLAYORDER=
